<?xml version="1.0" standalone="no"?>
<!DOCTYPE svg PUBLIC "-//W3C//DTD SVG 20010904//EN"
 "http://www.w3.org/TR/2001/REC-SVG-20010904/DTD/svg10.dtd">
<svg version="1.0" xmlns="http://www.w3.org/2000/svg"
 width="200.000000pt" height="200.000000pt" viewBox="0 0 200.000000 200.000000"
 preserveAspectRatio="xMidYMid meet">
<metadata>
Created by potrace 1.14, written by Peter Selinger 2001-2017
</metadata>
<g transform="translate(0.000000,200.000000) scale(0.100000,-0.100000)"
fill="#000000" stroke="none">
<path d="M1185 1848 c-66 -38 -178 -104 -250 -146 -71 -41 -132 -78 -135 -83
-6 -9 -6 -587 0 -592 6 -5 232 -137 285 -167 22 -12 82 -47 133 -77 l92 -54
95 56 c51 30 99 55 104 55 6 0 11 5 11 10 0 6 4 10 10 10 5 0 73 38 152 84
l143 84 1 299 c1 293 0 299 -20 309 -12 6 -128 72 -258 147 -130 75 -238 137
-240 136 -2 0 -57 -32 -123 -71z"/>
<path d="M540 1516 c-93 -55 -463 -269 -503 -290 l-37 -21 2 -353 3 -353 50
-28 c28 -16 163 -94 301 -174 l252 -145 28 17 c25 15 376 218 469 271 98 56
105 62 105 88 1 15 2 59 3 99 l2 72 -60 35 c-33 19 -76 43 -95 54 -19 10 -96
55 -170 99 -75 43 -143 82 -152 85 -14 6 -16 34 -17 225 0 120 0 235 -1 255 0
34 -4 39 -54 67 -29 17 -57 31 -62 30 -5 0 -34 -15 -64 -33z"/>
<path d="M1545 753 c-71 -42 -142 -82 -157 -90 -16 -8 -29 -18 -29 -21 -7 -42
-2 -366 6 -372 15 -13 305 -180 312 -180 3 0 77 41 164 91 l159 90 0 187 0
187 -157 90 c-87 50 -160 91 -163 92 -3 1 -63 -32 -135 -74z"/>
</g>
</svg>
